<svg id="Layer_1" data-name="Layer 1" xmlns="http://www.w3.org/2000/svg" viewBox="0 0 283.46 283.46"><defs><style>.cls-1{fill:none;stroke:#235863;stroke-miterlimit:10;stroke-width:5px;}</style></defs><title>paper</title><path class="cls-1" d="M45.84,108.81s28.4,5.4,58.39-3.71S156.3,92.37,168.12,92s49.29,4.42,61,6.45c5.33.92,9.7,4.61,7,9.76-2.51,4.9,4.52,2.61,7.7,3.64,1.54.5,4.77,3.52,4.62,8.3,0,1.31.22,6.69.22,6.69s10.43,3.06,8.41,11.54-5.55,9.16-10.33,13.11c-1.29,1.33-1.08,4.25-1.08,4.25a26.33,26.33,0,0,1,1.18,7.38c.13,5.28,1,7.58-12,12.48s-36.51,3.17-36.51,3.17S168,178,148.25,182.68c-.2.73,34.58,11.45,34.58,11.45s12.17,6.08,10.35,14-2.83,9.87-14.31,5.95-38.1-3.62-47.86-6.18c-11.09-2.91-17.18-5.83-25.45-14.11-17.71-17.73-61-16-61.89-15.94S21.2,141.74,45.84,108.81Z"/><line class="cls-1" x1="174.65" y1="153.03" x2="244.81" y2="153.25"/><path class="cls-1" d="M170.15,130.57s65.95,3.93,79.58-2.76"/><line class="cls-1" x1="167.48" y1="109.99" x2="237.6" y2="111.4"/></svg>