<svg id="Layer_1" data-name="Layer 1" xmlns="http://www.w3.org/2000/svg" viewBox="0 0 283.46 283.46"><defs><style>.cls-1{fill:none;stroke:#235863;stroke-miterlimit:10;stroke-width:5px;}</style></defs><title>rock</title><path class="cls-1" d="M44.39,103.85l58.75.79L131,81.51a95.44,95.44,0,0,1,14.61-9.3C154.75,67.42,176.7,58,176.7,58s12.85-6.38,27.4,6.31,32.07,29.75,32.07,29.75,8.7,5.92.29,13.4c-1.2-1,12.32,18.66,3,28.32,3,4.7,5.59,19.14-4.59,24.8-2,2.57.41,10.64.41,10.64A21.12,21.12,0,0,1,221.9,190s5.62,5.77-4.09,11.65-42.6,17.11-42.6,17.11A39.78,39.78,0,0,1,154.62,216c-11.12-4.52-18.23-10-36.56-30.52-8.48.13-65.38,3.76-65.38,3.76S28.59,149.69,44.39,103.85Z"/><path class="cls-1" d="M194.1,76.38s40.12,27.13,43.05,32.54"/><path class="cls-1" d="M194.92,102s44,27.6,46.7,39.39"/><path class="cls-1" d="M196.53,126.16s34.91,30.07,38.05,34.91"/><path class="cls-1" d="M221.9,190l-19.21,8s-12.76,5.41-28.51-9.85S166,164,166,164s15.15,0,19.65,2.28,11.88,5.09,18,5.38"/><path class="cls-1" d="M174.16,152.28s9.91,13,13.79,14.94"/><path class="cls-1" d="M185.43,177s-2.23-9.14.21-10.69"/></svg>