<svg id="Layer_1" data-name="Layer 1" xmlns="http://www.w3.org/2000/svg" viewBox="0 0 283.46 283.46"><defs><style>.cls-1,.cls-2{fill:#fbe063;}.cls-2,.cls-3{stroke:#235863;stroke-miterlimit:10;stroke-width:5px;}.cls-3{fill:none;}</style></defs><title>scissors3</title><ellipse class="cls-1" cx="118.66" cy="121.1" rx="20.18" ry="24.61"/><ellipse class="cls-1" cx="155.35" cy="179.34" rx="37.61" ry="24.61"/><ellipse class="cls-1" cx="139.76" cy="190.34" rx="24.61" ry="37.61" transform="translate(-91.44 238.41) rotate(-65.46)"/><path class="cls-2" d="M154.51,109l77.06-23.34s23.16-6.4,11.45,12.62c-2.75,4.81-67.66,32.51-67.66,32.51s-19.5,11.68-.93,14.45,80.94,9.92,80.94,9.92,13.29,8-1.85,17.42c-2.52.92-61.45-.73-61.45-.73s-50.9-6.91-52.28-6.92-27-2.54-16.74,13.29c-.24,1.15-27.52,2.05-3.92,29.81-.92,2.29-18,1.6-23.85.21-9.63-2.31-13.76-5.51-29.33-26.62-.92-.23-37.15-.94-37.15-.94s-17-26.84-2.47-74.76L69.9,105l30.74-18.78s11.93-10.08,28.43-1.82,21.08,20.2,21.08,20.2,6.94,13.69,1.82,22.93c-4.13,7.45-4.13,12.83-4.13,12.83s-4.14,10.09-11,4.58-6.41-18.8-6.41-18.8l-3.66-13.31-12.84-1.95s15.1,45.52-23.08,47.22"/><path class="cls-3" d="M193.79,172.6s5.38,15.71-11.14,24.87c-7.45,1.83-20.24-1.4-22.93-2.07-8.71-2.19-26.08-3.9-38.62-21.13"/><path class="cls-3" d="M173.82,197.58s7,13.2-9.76,18.68c-17.39,5.7-45.23-4.26-54-23.08"/></svg>