<svg id="Layer_1" data-name="Layer 1" xmlns="http://www.w3.org/2000/svg" viewBox="0 0 283.46 283.46"><defs><style>.cls-1{fill:none;stroke:#235863;stroke-miterlimit:10;stroke-width:5px;}</style></defs><title>scissors</title><path class="cls-1" d="M155.88,109l77.06-23.34s23.17-6.4,11.46,12.62c-2.75,4.81-67.67,32.51-67.67,32.51s-19.49,11.68-.92,14.45,80.93,9.92,80.93,9.92,13.3,8-1.84,17.42c-2.53.92-61.46-.73-61.46-.73s-50.9-6.91-52.27-6.92-27.06-2.54-16.75,13.29c-.23,1.15-27.52,2.05-3.92,29.81-.92,2.29-18,1.6-23.85.21-9.62-2.31-13.75-5.51-29.33-26.62-.91-.23-37.14-.94-37.14-.94s-16.95-26.84-2.47-74.76L71.27,105,102,86.21s11.93-10.08,28.44-1.82,21.08,20.2,21.08,20.2,6.94,13.69,1.82,22.93c-4.13,7.45-4.14,12.83-4.14,12.83s-4.13,10.09-11,4.58-6.41-18.8-6.41-18.8l-3.65-13.31-12.84-1.95s15.1,45.52-23.08,47.22"/><path class="cls-1" d="M195.16,172.6s5.38,15.71-11.13,24.87c-7.46,1.83-20.25-1.4-22.93-2.07-8.72-2.19-26.09-3.9-38.63-21.13"/><path class="cls-1" d="M175.2,197.58s7,13.2-9.76,18.68c-17.4,5.7-45.23-4.26-54-23.08"/></svg>