<svg id="Layer_1" data-name="Layer 1" xmlns="http://www.w3.org/2000/svg" viewBox="0 0 283.46 283.46"><defs><style>.cls-1{fill:#fbe063;stroke:#235863;stroke-miterlimit:10;stroke-width:5px;}</style></defs><title>spock2</title><path class="cls-1" d="M40.65,171.74s18.93-12.26,24.57-17.2c5.2-4.56,7.17-7.81,10.16-25.71,1.55-10.67,11-51.09,11-51.09s1.73-15.22,2.3-22.45c.19-2.35,9.26-9.31,18.64,8.91,4.85,10.14,2,35.81,2,35.81s-.56,14.48,12.78,10.2,80.1-57.79,80.1-57.79S212.91,46,220.59,62.63c.68,1.77,13.6-9.53,16.9,11.26-1.81,7.92-40.67,37.35-53.9,50.14-1.33,1.29-9.49,10.59,3.85,6.32l13.35-4.28s34.88-8.64,49.3-10.86c4.23-.65,16.61,11.25.83,19.7a122.88,122.88,0,0,1-12.21,5.93s12.67,8.4.8,15.58S203.67,168,183,180.25s-22.33,14.05-30.05,18.24c-7.09,3.83-17,7.63-31.61,6.35-8.29-.72-10.51-.52-10.51-.52L81.08,226.25S48.94,209.32,40.65,171.74Z"/><line class="cls-1" x1="165.4" y1="112.55" x2="220.59" y2="62.63"/><line class="cls-1" x1="186.92" y1="152.12" x2="240.04" y2="140.28"/><path class="cls-1" d="M125.82,134.07s11.35,25.86-19.39,36.68"/></svg>