<svg id="Layer_1" data-name="Layer 1" xmlns="http://www.w3.org/2000/svg" viewBox="0 0 283.46 283.46"><defs><style>.cls-1{fill:none;stroke:#235863;stroke-miterlimit:10;stroke-width:5px;}</style></defs><title>lizard</title><path class="cls-1" d="M48.71,185s15.81-30.13,18.05-38.24S70,130.57,88.81,103A180.37,180.37,0,0,1,107.06,83.5S107.69,83,118.88,68c3.67-4.89,14.81-6.37,39.52-5.34,21.89.9,25.78,1.42,25.78,1.42s11.16.53,22.33,13.75c6.75,8.82,30.93,44.11,30.93,44.11s4.74,8.06-.38,11.24-14.11,10.24-24.44,2.62c-6.21-4.82-11.6-14.59-33.35-27.91-12.31-7.54-15.13-10.09-26.9-8.32-6.22.94-13,11.23,1.67,26.45,9.53,7.56,32.29,6.42,32.29,6.42s15.63,1.28,18.86,13.38c1.8,6.78-12.7,6.66-26.24,8.54-14.44,2-31,9.06-41.65,9-8,0-18.34-3.67-26.2,18.38s-22.95,48.1-22.95,48.1S52.25,217.71,48.71,185Z"/><path class="cls-1" d="M229.55,137.41s9.4-2-3-16.42c-9.19-10.64-19.88-21.84-24-30.67-3.1-6.66-6.19-12.1-25.26-15-20.29-3.12-28.22-1.1-28.22-1.1"/></svg>