<svg id="Layer_1" data-name="Layer 1" xmlns="http://www.w3.org/2000/svg" viewBox="0 0 283.46 283.46"><defs><style>.cls-1{fill:#fbe063;stroke:#235863;stroke-miterlimit:10;stroke-width:5px;}</style></defs><title>lizard2</title><path class="cls-1" d="M48.71,182.41s15.81-30.13,18.05-38.24S70,128,88.81,100.46A180.37,180.37,0,0,1,107.06,81s.63-.56,11.82-15.46c3.67-4.89,14.81-6.37,39.52-5.35,21.89.91,25.78,1.43,25.78,1.43s11.16.52,22.33,13.75c6.75,8.82,30.93,44.1,30.93,44.1s4.74,8.07-.38,11.25-14.11,10.24-24.44,2.62c-6.21-4.82-11.6-14.59-33.35-27.91-12.31-7.54-15.13-10.09-26.9-8.32-6.22.94-13,11.23,1.67,26.45,9.53,7.56,32.29,6.42,32.29,6.42s15.63,1.28,18.86,13.38c1.8,6.77-12.7,6.66-26.24,8.54-14.44,2-31,9.06-41.65,9-8,0-18.34-3.67-26.2,18.38s-22.95,48.1-22.95,48.1S52.25,215.16,48.71,182.41Z"/><path class="cls-1" d="M229.55,134.86s9.4-2.05-3-16.42c-9.19-10.64-19.88-21.85-24-30.67-3.1-6.67-6.19-12.1-25.26-15-20.29-3.13-28.22-1.1-28.22-1.1"/></svg>