<svg id="Layer_1" data-name="Layer 1" xmlns="http://www.w3.org/2000/svg" viewBox="0 0 283.46 283.46"><defs><style>.cls-1{fill:#fbe063;stroke:#235863;stroke-miterlimit:10;stroke-width:5px;}</style></defs><title>rock2</title><path class="cls-1" d="M44.39,106.6l58.75.79L131,84.26A95.44,95.44,0,0,1,145.63,75c9.12-4.79,31.07-14.18,31.07-14.18s12.85-6.38,27.4,6.31,32.07,29.76,32.07,29.76,8.7,5.91.29,13.39c-1.2-1,12.32,18.66,3,28.33,3,4.69,5.59,19.13-4.59,24.8-2,2.56.41,10.63.41,10.63a21.11,21.11,0,0,1-13.43,18.7s5.62,5.77-4.09,11.65-42.6,17.11-42.6,17.11a39.83,39.83,0,0,1-20.59-2.7c-11.12-4.53-18.23-10-36.56-30.53-8.48.14-65.38,3.76-65.38,3.76S28.59,152.44,44.39,106.6Z"/><path class="cls-1" d="M194.1,79.14s40.12,27.13,43.05,32.54"/><path class="cls-1" d="M194.92,104.74s44,27.61,46.7,39.39"/><path class="cls-1" d="M196.53,128.91s34.91,30.08,38.05,34.91"/><path class="cls-1" d="M221.9,192.7l-19.21,8s-12.76,5.41-28.51-9.85S166,166.77,166,166.77s15.15,0,19.65,2.28,11.88,5.09,18,5.38"/><path class="cls-1" d="M174.16,155S184.07,168,188,170"/><path class="cls-1" d="M185.43,179.74s-2.23-9.14.21-10.69"/></svg>