<svg id="Layer_1" data-name="Layer 1" xmlns="http://www.w3.org/2000/svg" viewBox="0 0 283.46 283.46"><defs><style>.cls-1{fill:none;stroke:#235863;stroke-miterlimit:10;stroke-width:5px;}</style></defs><title>spockP</title><path class="cls-1" d="M40.65,179.65s18.93-12.26,24.57-17.2c5.2-4.56,7.17-7.81,10.16-25.72,1.55-10.66,11-51.08,11-51.08s1.73-15.22,2.3-22.45c.19-2.35,9.26-9.31,18.64,8.91,4.85,10.14,2,35.81,2,35.81s-.56,14.48,12.78,10.2,80.1-57.79,80.1-57.79,10.74-6.39,18.42,10.21c.68,1.77,13.6-9.53,16.9,11.26-1.81,7.92-40.67,37.35-53.9,50.14-1.33,1.29-9.49,10.59,3.85,6.32L200.79,134s34.88-8.64,49.3-10.86c4.23-.65,16.61,11.25.83,19.7a122.88,122.88,0,0,1-12.21,5.93s12.67,8.4.8,15.58S203.67,175.91,183,188.16s-22.33,14.05-30.05,18.23c-7.09,3.84-17,7.64-31.61,6.36-8.29-.72-10.51-.52-10.51-.52L81.08,234.16S48.94,217.23,40.65,179.65Z"/><line class="cls-1" x1="165.4" y1="120.46" x2="220.59" y2="70.54"/><line class="cls-1" x1="186.92" y1="160.03" x2="240.04" y2="148.19"/><path class="cls-1" d="M125.82,142s11.35,25.86-19.39,36.68"/></svg>